<svg width="360" height="92" viewBox="0 0 360 92" fill="none" xmlns="http://www.w3.org/2000/svg">
  <defs>
    <linearGradient id="wm_fill" x1="18" y1="18" x2="342" y2="74" gradientUnits="userSpaceOnUse">
      <stop offset="0" stop-color="#6EE7FF" />
      <stop offset="0.46" stop-color="#7C7CFF" />
      <stop offset="1" stop-color="#FF78C8" />
    </linearGradient>
    <linearGradient id="wm_accent" x1="24" y1="78" x2="336" y2="78" gradientUnits="userSpaceOnUse">
      <stop offset="0" stop-color="#6EE7FF" stop-opacity="0" />
      <stop offset="0.18" stop-color="#6EE7FF" stop-opacity="0.45" />
      <stop offset="0.5" stop-color="#7C7CFF" stop-opacity="0.6" />
      <stop offset="0.82" stop-color="#FF78C8" stop-opacity="0.45" />
      <stop offset="1" stop-color="#FF78C8" stop-opacity="0" />
    </linearGradient>
    <filter id="wm_glow" x="-30" y="-30" width="420" height="180" color-interpolation-filters="sRGB">
      <feGaussianBlur stdDeviation="9" result="blur" />
      <feMerge>
        <feMergeNode in="blur" />
        <feMergeNode in="SourceGraphic" />
      </feMerge>
    </filter>
  </defs>

  <g filter="url(#wm_glow)">
    <path
      d="M54.04 62.4C41.62 62.4 32.5 54.2 32.5 41.12C32.5 28.1 41.86 19.6 55.02 19.6C63.42 19.6 70.04 23.2 73.52 29.42L64.54 33.88C62.36 30.66 59.4 28.96 55.08 28.96C48.5 28.96 44.08 33.7 44.08 41.04C44.08 48.32 48.64 53.02 55.36 53.02C60 53.02 63.5 50.94 66.14 47.36L75.24 51.84C70.66 58.28 63.3 62.4 54.04 62.4Z"
      fill="url(#wm_fill)"
    />
    <path d="M86.8 61V21H98.12V61H86.8Z" fill="url(#wm_fill)" />
    <path
      d="M112.3 61V21H123.54V33.22H139.64V21H150.88V61H139.64V42.26H123.54V61H112.3Z"
      fill="url(#wm_fill)"
    />
    <path
      d="M168.14 61L153.28 21H165.42L173.8 45.38L182.02 21H193.78L179.32 61H168.14Z"
      fill="url(#wm_fill)"
    />
    <path
      d="M205.6 61V21H234.9V30.14H216.88V36.48H232.62V45.24H216.88V51.86H235.84V61H205.6Z"
      fill="url(#wm_fill)"
    />
    <path
      d="M250.16 61V21H261.74L274.5 39.54V21H285.42V61H273.84L261.08 42.46V61H250.16Z"
      fill="url(#wm_fill)"
    />
    <path
      d="M300.02 61V21H329.22V30.14H311.3V36.48H326.94V45.24H311.3V51.86H330.1V61H300.02Z"
      fill="url(#wm_fill)"
    />
    <path
      d="M157.5 41.7H200.1V49.1H157.5V41.7Z"
      fill="#FFFFFF"
      opacity="0.24"
    />
  </g>

  <rect x="24" y="76" width="312" height="6" rx="3" fill="url(#wm_accent)" />
</svg>
