<svg width="176" height="176" viewBox="0 0 176 176" fill="none" xmlns="http://www.w3.org/2000/svg">
  <defs>
    <radialGradient id="hub_bg" cx="0" cy="0" r="1" gradientUnits="userSpaceOnUse" gradientTransform="translate(88 72) rotate(90) scale(104)">
      <stop offset="0" stop-color="#0B1220" />
      <stop offset="1" stop-color="#050714" />
    </radialGradient>
    <linearGradient id="hub_rim" x1="22" y1="20" x2="156" y2="156" gradientUnits="userSpaceOnUse">
      <stop offset="0" stop-color="#6EE7FF" />
      <stop offset="0.46" stop-color="#7C7CFF" />
      <stop offset="1" stop-color="#FF78C8" />
    </linearGradient>
    <linearGradient id="hub_core" x1="52" y1="52" x2="124" y2="124" gradientUnits="userSpaceOnUse">
      <stop offset="0" stop-color="#F8FAFF" />
      <stop offset="1" stop-color="#C7D2FE" />
    </linearGradient>
    <filter id="hub_glow" x="-20" y="-20" width="216" height="216" filterUnits="userSpaceOnUse" color-interpolation-filters="sRGB">
      <feGaussianBlur stdDeviation="14" result="blur" />
      <feMerge>
        <feMergeNode in="blur" />
        <feMergeNode in="SourceGraphic" />
      </feMerge>
    </filter>
  </defs>

  <g filter="url(#hub_glow)">
    <rect x="20" y="20" width="136" height="136" rx="40" fill="url(#hub_bg)" />
    <rect x="24" y="24" width="128" height="128" rx="36" stroke="url(#hub_rim)" stroke-width="2" />

    <path
      d="M58 112C58 101.402 66.402 93 77 93H99C109.598 93 118 101.402 118 112"
      stroke="url(#hub_rim)"
      stroke-width="6"
      stroke-linecap="round"
      opacity="0.7"
    />

    <circle cx="88" cy="78" r="20" fill="url(#hub_core)" />
    <circle cx="88" cy="78" r="11" fill="#0B1220" opacity="0.85" />
    <circle cx="88" cy="78" r="5" fill="#FFFFFF" opacity="0.95" />

    <path
      d="M88 36C103.48 36 116.6 45.003 122.8 58.05"
      stroke="url(#hub_rim)"
      stroke-width="5"
      stroke-linecap="round"
      opacity="0.85"
    />
    <path
      d="M53.2 58.05C59.4 45.003 72.52 36 88 36"
      stroke="url(#hub_rim)"
      stroke-width="5"
      stroke-linecap="round"
      opacity="0.55"
    />

    <circle cx="52" cy="62" r="7" fill="#6EE7FF" opacity="0.75" />
    <circle cx="124" cy="62" r="7" fill="#7C7CFF" opacity="0.75" />
    <circle cx="88" cy="128" r="7" fill="#FF78C8" opacity="0.75" />

    <path
      d="M88 78V100"
      stroke="#FFFFFF"
      stroke-width="5"
      stroke-linecap="round"
      opacity="0.9"
    />
    <path
      d="M78 94L88 104L98 94"
      stroke="#FFFFFF"
      stroke-width="5"
      stroke-linecap="round"
      stroke-linejoin="round"
      opacity="0.9"
    />
  </g>
</svg>
