<svg width="160" height="160" viewBox="0 0 160 160" fill="none" xmlns="http://www.w3.org/2000/svg">
  <defs>
    <linearGradient id="logomark_surface" x1="18" y1="20" x2="146" y2="142" gradientUnits="userSpaceOnUse">
      <stop offset="0" stop-color="#4DD0FE" />
      <stop offset="0.45" stop-color="#7368FF" />
      <stop offset="1" stop-color="#FF6FBA" />
    </linearGradient>
    <radialGradient id="logomark_glow" cx="0" cy="0" r="1" gradientUnits="userSpaceOnUse" gradientTransform="translate(80 80) rotate(90) scale(88)">
      <stop offset="0" stop-color="#9EF7FF" stop-opacity="0.9" />
      <stop offset="0.45" stop-color="#5F5BFF" stop-opacity="0.35" />
      <stop offset="0.85" stop-color="#150F3A" stop-opacity="0.1" />
      <stop offset="1" stop-color="#050416" stop-opacity="0" />
    </radialGradient>
    <linearGradient id="logomark_orbit" x1="36" y1="42" x2="128" y2="120" gradientUnits="userSpaceOnUse">
      <stop offset="0" stop-color="#FDFCFF" stop-opacity="0.85" />
      <stop offset="0.35" stop-color="#C6F4FF" stop-opacity="0.7" />
      <stop offset="1" stop-color="#8670FF" stop-opacity="0.2" />
    </linearGradient>
    <linearGradient id="logomark_core" x1="58" y1="60" x2="102" y2="112" gradientUnits="userSpaceOnUse">
      <stop offset="0" stop-color="#0C1328" />
      <stop offset="1" stop-color="#1F2550" />
    </linearGradient>
    <filter id="logomark_shadow" x="-15" y="-15" width="190" height="190" filterUnits="userSpaceOnUse" color-interpolation-filters="sRGB">
      <feDropShadow dx="0" dy="18" stdDeviation="22" flood-color="#05091E" flood-opacity="0.65" />
    </filter>
  </defs>
  <g filter="url(#logomark_shadow)">
    <rect x="20" y="20" width="120" height="120" rx="38" fill="#050416" />
    <rect x="25" y="25" width="110" height="110" rx="34" fill="url(#logomark_surface)" />
    <circle cx="80" cy="80" r="74" fill="url(#logomark_glow)" />
    <path
      d="M54 83C54 65.8792 67.8792 52 85 52H102.5C106.642 52 110 55.3579 110 59.5C110 63.6421 106.642 67 102.5 67H87.5C78.6634 67 71.5 74.1634 71.5 83C71.5 91.8366 78.6634 99 87.5 99H99.4C108.707 99 116.207 106.5 116.207 115.8C116.207 125.1 108.707 132.6 99.4 132.6H75.8C60.2226 132.6 47.6 119.977 47.6 104.4C47.6 88.8226 60.2226 76.2 75.8 76.2H86.8"
      stroke="url(#logomark_orbit)"
      stroke-width="7"
      stroke-linecap="round"
      stroke-linejoin="round"
    />
    <path
      d="M54 83C54 65.8792 67.8792 52 85 52H102.5C106.642 52 110 55.3579 110 59.5C110 63.6421 106.642 67 102.5 67H87.5C78.6634 67 71.5 74.1634 71.5 83C71.5 91.8366 78.6634 99 87.5 99H99.4C108.707 99 116.207 106.5 116.207 115.8C116.207 125.1 108.707 132.6 99.4 132.6H75.8C60.2226 132.6 47.6 119.977 47.6 104.4C47.6 88.8226 60.2226 76.2 75.8 76.2H86.8"
      stroke="rgba(12, 19, 40, 0.45)"
      stroke-width="12"
      stroke-linecap="round"
      stroke-linejoin="round"
    />
    <circle cx="88" cy="54" r="10" fill="url(#logomark_core)" />
    <circle cx="72" cy="105" r="7" fill="url(#logomark_core)" />
    <circle cx="109" cy="118" r="11" fill="url(#logomark_core)" />
    <path
      d="M59 43C44.0883 47.803 33 61.5935 33 78.2C33 98.2779 49.7221 115 69.8 115H90.6C101.878 115 111 105.878 111 94.6C111 83.3221 101.878 74.2 90.6 74.2H81.4C74.8203 74.2 69.5 68.8797 69.5 62.3C69.5 55.7203 74.8203 50.4 81.4 50.4H108.8"
      stroke="rgba(255, 255, 255, 0.35)"
      stroke-width="6"
      stroke-linecap="round"
      stroke-linejoin="round"
    />
    <path
      d="M106 40C112.627 40 118 34.6274 118 28C118 21.3726 112.627 16 106 16C99.3726 16 94 21.3726 94 28C94 34.6274 99.3726 40 106 40Z"
      fill="#FBFAFF"
      fill-opacity="0.24"
    />
    <path d="M120 54C123.314 54 126 51.3137 126 48C126 44.6863 123.314 42 120 42C116.686 42 114 44.6863 114 48C114 51.3137 116.686 54 120 54Z" fill="#FDF8FF" fill-opacity="0.3" />
  </g>
</svg>
