<svg width="320" height="72" viewBox="0 0 320 72" fill="none" xmlns="http://www.w3.org/2000/svg">
  <defs>
    <linearGradient id="wordmarkGradient" x1="0" y1="0" x2="320" y2="72" gradientUnits="userSpaceOnUse">
      <stop offset="0" stop-color="#5EE7FF" />
      <stop offset="0.48" stop-color="#7C6BFF" />
      <stop offset="1" stop-color="#FF7AC7" />
    </linearGradient>
    <linearGradient id="underlineGradient" x1="24" y1="68" x2="296" y2="68" gradientUnits="userSpaceOnUse">
      <stop offset="0" stop-color="rgba(94,231,255,0)" />
      <stop offset="0.12" stop-color="rgba(94,231,255,0.45)" />
      <stop offset="0.5" stop-color="rgba(124,107,255,0.55)" />
      <stop offset="0.88" stop-color="rgba(255,122,199,0.45)" />
      <stop offset="1" stop-color="rgba(255,122,199,0)" />
    </linearGradient>
    <filter id="glow" x="-10%" y="-40%" width="120%" height="220%" color-interpolation-filters="sRGB">
      <feGaussianBlur in="SourceGraphic" stdDeviation="4" result="blur" />
      <feMerge>
        <feMergeNode in="blur" />
        <feMergeNode in="SourceGraphic" />
      </feMerge>
    </filter>
  </defs>
  <rect x="12" y="60" width="296" height="4" rx="2" fill="url(#underlineGradient)" />
  <g filter="url(#glow)">
    <path d="M31.42 50C20.18 50 12 41.88 12 29.18C12 17.06 20.02 9 32.74 9C40.28 9 46.62 12.06 50.08 17.36L41.38 21.94C39.04 18.58 36 16.94 32.44 16.94C26.02 16.94 21.66 21.7 21.66 29.16C21.66 36.94 25.94 41.72 32.5 41.72C36.92 41.72 39.82 39.82 42.1 36.16L50.96 40.52C46.9 46.32 40.46 50 31.42 50Z" fill="url(#wordmarkGradient)" />
    <path d="M54.14 48.7V10.3H64.22V48.7H54.14Z" fill="url(#wordmarkGradient)" />
    <path d="M72.78 48.7V10.3H82.86V22.48H96.28V10.3H106.36V48.7H96.28V31.06H82.86V48.7H72.78Z" fill="url(#wordmarkGradient)" />
    <path d="M119.26 48.7L105.1 10.3H115.82L124.18 37.64L132.52 10.3H143.02L128.98 48.7H119.26Z" fill="url(#wordmarkGradient)" />
    <path d="M152.9 48.7V10.3H179.9V18.62H162.98V24.82H177.62V32.82H162.98V40.42H180.64V48.7H152.9Z" fill="url(#wordmarkGradient)" />
    <path d="M188.86 48.7V10.3H199.3L211.34 28.08V10.3H221.3V48.7H210.86L198.82 30.96V48.7H188.86Z" fill="url(#wordmarkGradient)" />
    <path d="M229.14 48.7V10.3H256.14V18.62H239.22V24.82H253.86V32.82H239.22V40.42H256.88V48.7H229.14Z" fill="url(#wordmarkGradient)" />
    <path d="M265.06 48.7V10.3H288.18C302.14 10.3 308 17.32 308 29.46C308 41.7 301.9 48.7 287.78 48.7H265.06ZM275.14 40.46H286.72C294.26 40.46 298.22 37.16 298.22 29.5C298.22 21.92 294.34 18.62 286.64 18.62H275.14V40.46Z" fill="url(#wordmarkGradient)" />
  </g>
</svg>
